<mxfile modified="2020-02-26T03:48:07.317Z" host="www.draw.io" agent="Mozilla/5.0 (Windows NT 10.0; Win64; x64) AppleWebKit/537.36 (KHTML, like Gecko) Chrome/79.0.3945.130 Safari/537.36" etag="WPlKFrQHWHII713zh25k" version="12.7.6" type="github">
  <diagram id="Ht1M8jgEwFfnCIfOTk4-" name="Page-1">
    <mxGraphModel dx="2733" dy="956" grid="1" gridSize="10" guides="1" tooltips="1" connect="1" arrows="1" fold="1" page="1" pageScale="1" pageWidth="1169" pageHeight="827" math="0" shadow="0">
      <root>
        <mxCell id="0" />
        <mxCell id="1" parent="0" />
        <mxCell id="UEzPUAAOIrF-is8g5C7q-74" value="AWS Cloud" style="points=[[0,0],[0.25,0],[0.5,0],[0.75,0],[1,0],[1,0.25],[1,0.5],[1,0.75],[1,1],[0.75,1],[0.5,1],[0.25,1],[0,1],[0,0.75],[0,0.5],[0,0.25]];outlineConnect=0;gradientColor=none;html=1;whiteSpace=wrap;fontSize=12;fontStyle=0;shape=mxgraph.aws4.group;grIcon=mxgraph.aws4.group_aws_cloud_alt;strokeColor=#232F3E;fillColor=none;verticalAlign=top;align=left;spacingLeft=30;fontColor=#232F3E;dashed=0;labelBackgroundColor=#ffffff;" parent="1" vertex="1">
          <mxGeometry x="-10" y="70" width="1130" height="730" as="geometry" />
        </mxCell>
        <mxCell id="UEzPUAAOIrF-is8g5C7q-90" value="" style="edgeStyle=orthogonalEdgeStyle;rounded=0;orthogonalLoop=1;jettySize=auto;html=1;endArrow=open;endFill=0;strokeWidth=2;" parent="1" edge="1">
          <mxGeometry relative="1" as="geometry">
            <mxPoint x="448" y="349" as="sourcePoint" />
            <mxPoint x="480" y="349" as="targetPoint" />
          </mxGeometry>
        </mxCell>
        <mxCell id="_snitTOv_BPni5om2TKD-30" style="edgeStyle=orthogonalEdgeStyle;rounded=0;orthogonalLoop=1;jettySize=auto;html=1;" parent="1" source="UEzPUAAOIrF-is8g5C7q-77" target="_snitTOv_BPni5om2TKD-25" edge="1">
          <mxGeometry relative="1" as="geometry">
            <Array as="points">
              <mxPoint x="560" y="370" />
            </Array>
          </mxGeometry>
        </mxCell>
        <mxCell id="UEzPUAAOIrF-is8g5C7q-77" value="Data bucket" style="outlineConnect=0;fontColor=#232F3E;gradientColor=none;fillColor=#277116;strokeColor=none;dashed=0;verticalLabelPosition=bottom;verticalAlign=top;align=center;html=1;fontSize=12;fontStyle=0;aspect=fixed;pointerEvents=1;shape=mxgraph.aws4.bucket_with_objects;labelBackgroundColor=#ffffff;" parent="1" vertex="1">
          <mxGeometry x="525" y="142" width="75" height="78" as="geometry" />
        </mxCell>
        <mxCell id="_snitTOv_BPni5om2TKD-32" value="Data bucket" style="outlineConnect=0;fontColor=#232F3E;gradientColor=none;fillColor=#277116;strokeColor=none;dashed=0;verticalLabelPosition=bottom;verticalAlign=top;align=center;html=1;fontSize=12;fontStyle=0;aspect=fixed;pointerEvents=1;shape=mxgraph.aws4.bucket_with_objects;labelBackgroundColor=#ffffff;" parent="1" vertex="1">
          <mxGeometry x="820" y="142" width="75" height="78" as="geometry" />
        </mxCell>
        <mxCell id="_snitTOv_BPni5om2TKD-21" value="" style="edgeStyle=orthogonalEdgeStyle;rounded=0;orthogonalLoop=1;jettySize=auto;html=1;" parent="1" source="UEzPUAAOIrF-is8g5C7q-98" target="_snitTOv_BPni5om2TKD-5" edge="1">
          <mxGeometry relative="1" as="geometry">
            <mxPoint x="238.46000000000004" y="300.0783251100147" as="targetPoint" />
          </mxGeometry>
        </mxCell>
        <mxCell id="0sovZmr1Pge8CrAlzYiy-1" style="edgeStyle=orthogonalEdgeStyle;rounded=0;orthogonalLoop=1;jettySize=auto;html=1;entryX=0.649;entryY=0.583;entryDx=0;entryDy=0;entryPerimeter=0;" edge="1" parent="1" source="UEzPUAAOIrF-is8g5C7q-98" target="_snitTOv_BPni5om2TKD-47">
          <mxGeometry relative="1" as="geometry" />
        </mxCell>
        <mxCell id="UEzPUAAOIrF-is8g5C7q-98" value="Script bucket" style="outlineConnect=0;fontColor=#232F3E;gradientColor=none;fillColor=#277116;strokeColor=none;dashed=0;verticalLabelPosition=bottom;verticalAlign=top;align=center;html=1;fontSize=12;fontStyle=0;aspect=fixed;pointerEvents=1;shape=mxgraph.aws4.bucket;labelBackgroundColor=#ffffff;" parent="1" vertex="1">
          <mxGeometry x="391" y="140" width="76.92" height="80" as="geometry" />
        </mxCell>
        <mxCell id="_snitTOv_BPni5om2TKD-29" value="" style="edgeStyle=orthogonalEdgeStyle;rounded=0;orthogonalLoop=1;jettySize=auto;html=1;" parent="1" edge="1">
          <mxGeometry relative="1" as="geometry">
            <mxPoint x="505" y="370" as="sourcePoint" />
            <mxPoint x="585" y="370" as="targetPoint" />
          </mxGeometry>
        </mxCell>
        <mxCell id="_snitTOv_BPni5om2TKD-5" value="" style="outlineConnect=0;fontColor=#232F3E;gradientColor=#945DF2;gradientDirection=north;fillColor=#5A30B5;strokeColor=#ffffff;dashed=0;verticalLabelPosition=bottom;verticalAlign=top;align=center;html=1;fontSize=12;fontStyle=0;aspect=fixed;shape=mxgraph.aws4.resourceIcon;resIcon=mxgraph.aws4.glue;" parent="1" vertex="1">
          <mxGeometry x="370" y="310" width="120" height="120" as="geometry" />
        </mxCell>
        <mxCell id="_snitTOv_BPni5om2TKD-8" value="" style="outlineConnect=0;dashed=0;verticalLabelPosition=bottom;verticalAlign=top;align=center;html=1;shape=mxgraph.aws3.android;fillColor=#FFD44F;gradientColor=none;" parent="1" vertex="1">
          <mxGeometry x="434.25" y="370" width="55.75" height="44" as="geometry" />
        </mxCell>
        <mxCell id="_snitTOv_BPni5om2TKD-23" value="" style="edgeStyle=orthogonalEdgeStyle;rounded=0;orthogonalLoop=1;jettySize=auto;html=1;" parent="1" source="_snitTOv_BPni5om2TKD-14" target="_snitTOv_BPni5om2TKD-5" edge="1">
          <mxGeometry relative="1" as="geometry">
            <mxPoint x="274" y="377.29499999999985" as="targetPoint" />
          </mxGeometry>
        </mxCell>
        <mxCell id="_snitTOv_BPni5om2TKD-14" value="" style="shape=image;verticalLabelPosition=bottom;labelBackgroundColor=#ffffff;verticalAlign=top;aspect=fixed;imageAspect=0;image=data:image/png,iVBORw0KGgoAAAANSUhEUgAAAEoAAABLCAYAAADXjBHUAAAR3UlEQVR4Ae2cd3CU553H38z5bm7mEoypAgSSUAGBRBMBAsYG47MzMZc4ubMQ6nXVkECSKaYYk0zu4gI2RRhwyf2VSRnHBiQhjHHcQatVWfXdlbQrod4WI7qA783vecu+u2x5twCZyWnmp10kxmg++j7f9/d8n99jrnn+JrREUOVBF2kp/YJ8iGVYuBlUrVSLtrBqW7QFbYupCtBOtaQAxiWFfEUVwhRVxKpjaRH4ehmdPxZrKy4t46tr2TZ0Leere/k2dK/Yjh6xfrIDvWKtfAV9Yq16Bf2rdrIaeHInBp7cxWpw9S7wtRtDT/E1/PQeiDWy5lWIZV77Ksxr9+Iy1TNUr+F7qnWv4Qqrfbjy7D6Msvo1OAJlBUsCZgFFwBzCYsC8hbVVIawd3sN6eo99WAyYHVjreFhc8/xcBso+rDxJVa5gMVV5pSxfwOLVJSpLVBW9iqqi1xEBlnkNqUqmLEewnt0HrmkegXID1gLHy/DvA5aTZfiUbBm6qSwGqomB+geBJfcsN2BxjfNyQKpyDUuhZy3ewpv7I1+GTpTlASyuMVwApQiWQs/yCSylT0PlBu+NZzFQVrD+37PsGjzXEJ4DAmUF6xF71qUfy/ssL56GrMdyo89y5FnP7AXXMDdbAuUerAfrWT6DtYpAeQ+LgWoI9xSWxbMMzppSDz3LGpb7ntXvooN3x7O4+rnZIFU5hOWGZ3kFa3EBjHNz0R6SBWNINkzhm9AZVShtdWjL00WlaLtjMXhXsAZXy7Y7Tvosrn5OFlzCcsOz3IYVVYT28FwYF25BX+a7MB8ugflwKfqzjqFjcQE6IvJxadk2CZgnsPpEZXnoWdTB86DmZPsAlsWzFMOKKkTbnBx0/nQfblQaYPtxQ9OK7hd+A9O8PAmUe8qybKTdUpadPourI0WJ5WoZulSWe7DaIvJgXLkdtzsGGaOxPjMu/+/nrOg9fYx1DuLS6p3oWLQFbnvWyh3oFROHlZQ4OE8dHHoWKaouLAsWWAqU5ciz7EQ0rpRlCFLBfOIsA3JTa4Jp5Xa0zkpHW0AGOlbtwM06E/ve5ffOwRSazWIaa1gKPMtNWI48i9OGZTJQbsFypCwJlgJlLchH64LNuGXoYTB6kg+iNTCD5VkmWpJBmehNOcS+R3+nY3EhM3fKtLyF5Yln8aAeBayIPLQvfxl3RkaBe/dgWrsLbCmK4V9kPjqf2cO+d3dkFJ0rd6BjUaEU/nkLy9UytFLW03vAaUMzwVR1Hyz3noZ8SmqblDpRFikqMl9SVHfSOzAEZKCdQEUVojVQBVIZfdwy9MJET8AlhehYKqaktspS0Ge5uQzlnsXVhqrgGJZ7nmUfluOmVBeYgZHjvEfdqDXCuGIb9P6pMMxMg2nFdtDX6MP8/qesv7IXKz8sZTFQXsOSeZZ9WPaVZZiXi7YVW3G7Y4ABGes1w/zhZ6zGekfY1253DjJjN0ZudpjBewvLlWeRsrjaEBUIlLew+JSUD/8Uw1q0GfqQLJieew3XNa0MjPzTjao2dP7s12ibkwvTUucHFg5hrdhu/8DCrWW4G1yNDJRzWK49yzNYW6APzYI+PBe9m9/DvdtjrPo2v4+2+ZvQNjcXxqgiRac71rBknuUDWFxNSAaUw3LtWc0Rm9A4OwMN05LRMD0ZjaxS0DRDKP8UNPunonlmKlr8U9EyMw0ts9LQPCUBuiAV7o7eYKUPUkHnlwRDYAYMQRloDVKxaputQtvsTFbtwZloD86CkYrtEbPQEbEZl5bzWx6rozBvYK3eBa46mED5AJYQKTcGq2CMeQODR0r5Ki7FoFBDxaXgqwxDR/kaPloGVkdKMPLBOUlR5g/OYbi4FCPvnmFlPlYOe3X5eDkuHz8rVV/yQXQu3CJteTyBZc+zeFC+ghWejYbAdFyvaZNbzUN9f1NrREdEHi4tfdkrWLZ9FlcdnA6mKrdh2fEs2ivOzsB1rfBY/8s3GHjnFAaPlrESVcRe3y3D0LtnMGxV5Rg+dgYjrMoxckyo4+WsjTAfLwdfZ2E+fpZtfy6fOAtzcRlGP77AfiE36zvQsWAzOpcW2XTwXnjWkzvBVc0mUJ7CsvYsyrXqgzJwvbad/dCG5/dC+6NoNExLUuZZ5FuCZ+lmpUEXkA69WORVYtl4lmFKErp+8d88qDoTTJE8qPu3O57DYqAUw5qThdpZqaieHMeqZnIcaibHo3aKUPR+XAyuafjIhEDV/jAa9QyUHVgB6cK8g/0+S5x1YHMO8qN7m6Ow9rm56Il/WwYqHx1RRQ62O57B4qpmp4FAKYFVG5CKlp/uRd87J9F36DSr/kOn0X9YKHr/9kncFprFkT99jf4Dn2DgSAkGWVkbfHfRh2gJz4UuYhN0kXJY/Gm0fDDEGSzqs+yBUrTdUfI0XPUKOE2QBZQrWFWT42AuqWS/OV99Mjy9Ey1hWXaUpRxWW1gOepL4feFtYz+M80lR/L7QV7AYKI1MVQ5hhahQNSUe5vIqxshcWonet/6K/iMlNlXKFDRQXAp5DRaX8W3CkRIMHTvDeiVKDVr/fQ+aQ0VQ/NiRNG4kzDm4UlYbxcXP72MGP/SbP7FYmaIacdzIF7C4yqA0kKqUwGKgyjQMVGvCAagf+zmqJ8XKPCseNaJf0evUBGinJrKq80tEvV8S6ibHo2FmCsZ6+L1c67rdaA7NtJrP0suWITWhLg0+SMU20vrxsdBPSrA0pLOpIRWaUqEhNYVko3PBFrebUq4yMJUHpQCWhpaeCCr+ANT/9HNUESgBFm/ucQ5gJYBgaSfHo94/Bbe7eVCGdbvRFEKgbCOaPOjm5aKn8AO+IRUb06N8SyE2ovJXxw2prCk9Vo7el95A58ICt/osBkopLAZKXHqn1eh5/SP0HTolFG/uZPJWBs+MvgQDh4U6dJr1VHdGb7BQzvDsHhkoC6yWOdloXf0K7t254ys7lP471z6tgSksx60+i1MHpoJAKYFVOTEW5lK19A/64o3+qR0MlGWQjYdFBt/2zG7cG7uLu9duYvjEWQwXl2H4mCdN6afsGOzqpzXsR752vg6mObl2MngHrcNPtoNTB6RIoFzBqvJPRtPzr6L34Cn0UntwWF4l/J/l7cGfv0bfgZPoPyIafImVwXcVfYDGOdlonpcjDbOJEQ0ZfNvaXUx1dwa+R0uwCk1+SZJf0UZaeVOaCcPEBHZuSKSundNKoJQ2pQyUOsCiKqewwlRQT4rFBe4FodbjIrceF3+wHhU/+A9UcOtxgXseoxea2W+ucVkhKrjnoHnsRVZVj72Iqn/+JaqFqh23wWY2y5JnEajWNbuAu/cwNnQFhqhC5llsRFLh01Aavl1SiPbQLAwU/Z5X1LlaGMNylMXKQp/FVQSkgFSlBJbGPwlNz+1Bz9ufoPfgSaFO8QojlVEd+ERqOIf/+BV693/s0LMuFbyPxrAsNAkzWvI8i56ErWt2MlB3hq5AH1UAXXiuNFNqUAhLnFZuC8lCf9GHMlDZUvsgTis7y7O4ilkpUAYrDRVPxGDktG89SvfkdjTQsqJBNtmZIT0JDQTq3j2MDXyP5tkZaJyaiCbKssQ8i/aFCvaGlGXpJ8ShV3VUAtUeZgGlpM/iKmYlQxGsoDRUTNyIkTN8HzVSokb3Gx8xryK/su9Z5Fs2Demh0xg4WoY7o9cZBP0zu9lGWhqRFGDxoHZJZk5N6uDhEgwVl/Flm2ex9sFB60BpxMHTuFpezYM6r0V7aLYsg7ec7DjyLO4iA6UMVsXEGIyU8lsYfdyb+I5bD/UTMaikmkC1EZqJfFVNjGU9Ft9nWTbR1RM2onZ6Em51D7MfWrd2J+pJLTTMJs6TkrpCVdCv2o57d+6yv+fLT1fP1rBTHetLAy879qzl28BdnJkMpbAqJshAxb6Fb7kXoH5ig0NYGjuwGKhpMlBrCFS6ZZhNhEW+NScLXQXv2+RZZzDEsiw7eZaT1kHMsijj6vrP19EekQ/a5iiFxV2YmQSlsC4SqDP8Xm/klBpdv/sLet45KRVv8Nbm3ndQbEjp9TToz7Q/FJeebu0u1AWmQz4iKVdWw6xUKc/i8/dkNIr5+wwxf09D07QkNP7bBjSNj2UZvLPWgQ4txAMLpbAEUMpgXRi/AcMlvjXz5lXbUBeUfv8wm6gsmcHbNqXS3Z25OWhft5vl8P17/wD9/DzQgIizPEveOtiDJT4JmWct2wrugn8SeFW5hlUxLQH1z+5GN6no4CnrOsQrqefAJ7gl5FFDf/wKPfs/ljWmvLmLBt9R8B7qglVs7IhN/bHJP8vwrVxZ99+usGx3moMy0Bm3n9nYrfY+6MOyGShXqYMrWPKnIfedfyIUw6Inn188Lox7CRcej8bFcdG4+Hg0KsZv4Iu+9q+/wqhaz37oprU7cfFffunQ4GumJVpGjsTZLA9gUevQseFN9m/e0BqhI1CR9190chb+ETR7yhJhMVDfkarcUJbDvSElENMTcVU4hWlkoF60ehraNXgWKVunDlopouFThzq/JBbT8LFyslUGX/94DNp/ts8KlD6Slp/y8E9Ulz1YtPy472YkglTlE1hBaahkoPjDhcE/fInuNz+y7tzJ3G0N3l6sbJs6HCnhA0E7sfLA2ydh/vM3PKg6E1MUgfJ0u2MPFvctgfIVrKBUqKfG42rVozvXu15rRHOwCvoI+RSNMmWJqrK3DLlvZyTAl7DU0xPR8qvfSkbfSyYvdO7i6/2pQwlT2cCJs9JJ8eB7Z9kekQ4m5JEyvZdi5aOlUo9FZ4d0XmiK3S9l8PKk1KtluLQI3DfTCZQPYAUJSensdKj94iWDV4/nG1LnHXwcND/8L9RMjZdmD2r9ElD9o2gWJ9NxmMWzEllSSrEy+ZXcs6jPagpWoSUyX7r26ytYPChfw7KJlcUDVsucg2zWISwT1TOSUROQCqPqiKQoY2YxtAFp0FLDGZ4j9Fnutw7Ua3kCy3YZct9MjwdT1UOBJZxIs6GQDDaTVTUtEY2rt2O0QsfMWP7p6kUdmlfvgHZmyiOHxX09jQflNSxZpFwpLkMbZfFHYRn8rENIBqpnpUAbmYebxn7Ghw5O+0+UsxIPUW8a+9C4MB91NEok9lqyG2HOm9I8h6c77noWA+UzWPKk1AEs+TKsnLgRvYdLGCTqvbSRm6AZH8OqfkEergn9GO0Na6ckWG5XeNCUitsdT5ehBOphw6qiE+rANFxv6WKg9NG/g2ZCDGrDVGxKmWIaQ/Tr7Hs3dF2oC1GhLjTz0cBaUgDuK784ECSxaAl6tAwDZEmpgmWoCUhBzbwcjA1fYQFe/dICthTFeVIy94ZlhXzCOTwKUpg2OIO/jiIuQbeU5d0yZKAeBSxNYCqqAlJxveUSU43upf9hAWANDd6GqaCZsNFKUQRJG6rycm/oOSzuS784EKgHAsuFZ1EG33P4NO9RVa2onZ8D9bhoVI7bAG1ELq5W85PCfcWl7Ni+zvbSgEfKsqQO7rQO3JdTYyVQDxuWxj8ZNfNzcdPEP/Vu9Qyj71gZK3pPH/Q9Wna1gWn2b1g8JFgM1AOH5cizgtOhnhKP+lVb7fZR1FtRj1U9LZFBoqso8uso912fs/Es8WRHfrpjCf/cW4bcF1NjQaB8AyvZOlZWYvDB6aj0S4BmVgr08fvR/dZfWbUm7Ed1YBqqpiehNizT6sKAHJZ0K8yBsnwCa9EWcF9MiYUclseeNdNBUiqH5cSzNAGpUE+OsxxWTIlHdVAaPwMvuzQg3tvxHSzXnkWRMvfFlI2whSWauzueJQZ/0mGF/HRHISzq3OWDbHb3hrJLTg8TFvc3Bso3sFj4JynLg2Uom/yTd/D8hYEM2Lu3I4f1wDyLFPW3yRvhE1gsJRWS0gcIS34dxffL0LHBc59PjoEzWG55lgDLehnanO74YBm6UpZ3Bm/fswRQzmH9w3vWgnxwn0+KAa8qL2GxlFRISh/SMnSlLN95Vj648wTq7w6WMKlsk2fZM3hXnuUrWNz5SRvgDiyXnmVHWZ55lnJYjpUl/386yC45udXBb4IuIg/c+YkEyj1Y9jxLjJRZRCOHJRyFWcNy0jpYNaXKYTlWli9g5YH7jED5CJZV+CeH5ZVnKYf1IJXFfTYxGr6E5VBZDwnWg1LW/wE+2dMcexJ55gAAAABJRU5ErkJggg==;" parent="1" vertex="1">
          <mxGeometry x="160" y="316.59" width="104" height="105.41" as="geometry" />
        </mxCell>
        <mxCell id="_snitTOv_BPni5om2TKD-51" style="edgeStyle=orthogonalEdgeStyle;rounded=0;orthogonalLoop=1;jettySize=auto;html=1;" parent="1" source="_snitTOv_BPni5om2TKD-24" target="_snitTOv_BPni5om2TKD-25" edge="1">
          <mxGeometry relative="1" as="geometry" />
        </mxCell>
        <mxCell id="_snitTOv_BPni5om2TKD-24" value="" style="outlineConnect=0;fontColor=#232F3E;gradientColor=#F54749;gradientDirection=north;fillColor=#C7131F;strokeColor=#ffffff;dashed=0;verticalLabelPosition=bottom;verticalAlign=top;align=center;html=1;fontSize=12;fontStyle=0;aspect=fixed;shape=mxgraph.aws4.resourceIcon;resIcon=mxgraph.aws4.secrets_manager;" parent="1" vertex="1">
          <mxGeometry x="641" y="680" width="78" height="78" as="geometry" />
        </mxCell>
        <mxCell id="_snitTOv_BPni5om2TKD-49" style="edgeStyle=orthogonalEdgeStyle;rounded=0;orthogonalLoop=1;jettySize=auto;html=1;" parent="1" source="_snitTOv_BPni5om2TKD-25" target="_snitTOv_BPni5om2TKD-32" edge="1">
          <mxGeometry relative="1" as="geometry">
            <Array as="points">
              <mxPoint x="858" y="460" />
            </Array>
          </mxGeometry>
        </mxCell>
        <mxCell id="_snitTOv_BPni5om2TKD-52" style="edgeStyle=orthogonalEdgeStyle;rounded=0;orthogonalLoop=1;jettySize=auto;html=1;" parent="1" source="_snitTOv_BPni5om2TKD-25" target="_snitTOv_BPni5om2TKD-38" edge="1">
          <mxGeometry relative="1" as="geometry" />
        </mxCell>
        <mxCell id="_snitTOv_BPni5om2TKD-25" value="" style="outlineConnect=0;fontColor=#232F3E;gradientColor=#945DF2;gradientDirection=north;fillColor=#5A30B5;strokeColor=#ffffff;dashed=0;verticalLabelPosition=bottom;verticalAlign=top;align=center;html=1;fontSize=12;fontStyle=0;aspect=fixed;shape=mxgraph.aws4.resourceIcon;resIcon=mxgraph.aws4.redshift;" parent="1" vertex="1">
          <mxGeometry x="620" y="420.71000000000004" width="120" height="120" as="geometry" />
        </mxCell>
        <mxCell id="_snitTOv_BPni5om2TKD-36" value="&lt;font style=&quot;font-size: 14px&quot;&gt;1: ELT kickoff&lt;/font&gt;" style="text;html=1;resizable=0;autosize=1;align=center;verticalAlign=middle;points=[];fillColor=none;strokeColor=none;rounded=0;" parent="1" vertex="1">
          <mxGeometry x="270" y="383" width="100" height="20" as="geometry" />
        </mxCell>
        <mxCell id="_snitTOv_BPni5om2TKD-37" value="&lt;font style=&quot;font-size: 14px&quot;&gt;2: Load data&lt;/font&gt;" style="text;html=1;resizable=0;autosize=1;align=center;verticalAlign=middle;points=[];fillColor=none;strokeColor=none;rounded=0;" parent="1" vertex="1">
          <mxGeometry x="510" y="382" width="90" height="20" as="geometry" />
        </mxCell>
        <mxCell id="_snitTOv_BPni5om2TKD-38" value="" style="outlineConnect=0;fontColor=#232F3E;gradientColor=#945DF2;gradientDirection=north;fillColor=#5A30B5;strokeColor=#ffffff;dashed=0;verticalLabelPosition=bottom;verticalAlign=top;align=center;html=1;fontSize=12;fontStyle=0;aspect=fixed;shape=mxgraph.aws4.resourceIcon;resIcon=mxgraph.aws4.quicksight;" parent="1" vertex="1">
          <mxGeometry x="990" y="441.71" width="80" height="80" as="geometry" />
        </mxCell>
        <mxCell id="_snitTOv_BPni5om2TKD-40" value="&lt;font style=&quot;font-size: 14px&quot;&gt;3a: Transform&lt;br&gt;&lt;/font&gt;" style="text;html=1;resizable=0;autosize=1;align=center;verticalAlign=middle;points=[];fillColor=none;strokeColor=none;rounded=0;" parent="1" vertex="1">
          <mxGeometry x="505" y="560" width="100" height="20" as="geometry" />
        </mxCell>
        <mxCell id="_snitTOv_BPni5om2TKD-44" style="edgeStyle=orthogonalEdgeStyle;rounded=0;orthogonalLoop=1;jettySize=auto;html=1;" parent="1" source="_snitTOv_BPni5om2TKD-41" target="_snitTOv_BPni5om2TKD-25" edge="1">
          <mxGeometry relative="1" as="geometry" />
        </mxCell>
        <mxCell id="_snitTOv_BPni5om2TKD-41" value="" style="outlineConnect=0;fontColor=#232F3E;gradientColor=#945DF2;gradientDirection=north;fillColor=#5A30B5;strokeColor=#ffffff;dashed=0;verticalLabelPosition=bottom;verticalAlign=top;align=center;html=1;fontSize=12;fontStyle=0;aspect=fixed;shape=mxgraph.aws4.resourceIcon;resIcon=mxgraph.aws4.glue;" parent="1" vertex="1">
          <mxGeometry x="370" y="480" width="120" height="120" as="geometry" />
        </mxCell>
        <mxCell id="_snitTOv_BPni5om2TKD-43" value="" style="outlineConnect=0;dashed=0;verticalLabelPosition=bottom;verticalAlign=top;align=center;html=1;shape=mxgraph.aws3.android;fillColor=#FFD44F;gradientColor=none;" parent="1" vertex="1">
          <mxGeometry x="434.25" y="540.71" width="55.75" height="44" as="geometry" />
        </mxCell>
        <mxCell id="_snitTOv_BPni5om2TKD-50" value="&lt;font style=&quot;font-size: 14px&quot;&gt;3b: Unload to s3&lt;br&gt;&lt;/font&gt;" style="text;html=1;resizable=0;autosize=1;align=center;verticalAlign=middle;points=[];fillColor=none;strokeColor=none;rounded=0;" parent="1" vertex="1">
          <mxGeometry x="850" y="359.28999999999996" width="120" height="20" as="geometry" />
        </mxCell>
        <mxCell id="_snitTOv_BPni5om2TKD-53" value="&lt;font style=&quot;font-size: 14px&quot;&gt;4: Vizualization&lt;br&gt;&lt;/font&gt;" style="text;html=1;resizable=0;autosize=1;align=center;verticalAlign=middle;points=[];fillColor=none;strokeColor=none;rounded=0;" parent="1" vertex="1">
          <mxGeometry x="815" y="489.99999999999994" width="110" height="20" as="geometry" />
        </mxCell>
        <mxCell id="_snitTOv_BPni5om2TKD-47" value="" style="rounded=0;whiteSpace=wrap;html=1;opacity=40;dashed=1;fillColor=#fad7ac;strokeWidth=2;strokeColor=#b46504;" parent="1" vertex="1">
          <mxGeometry x="140" y="270" width="370" height="360" as="geometry" />
        </mxCell>
      </root>
    </mxGraphModel>
  </diagram>
</mxfile>
